# xmcd
#
# Track frame offsets: 
#        150
#        14635
#        29543
#        44529
#        59073
#        73352
#        86040
#        100609
#        114293
#        129364
#        143629
#
# Disc length: 2097 seconds
#
# Revision: 0
# Processed by: cddbd v1.5.2PL0 Copyright (c) Steve Scherf et al.
# Submitted via: ExactAudioCopy v0.99pb4
#
DISCID=9e082f0b
DTITLE=Nat King Cole - Love is the Thing
DYEAR=1900
DGENRE=Blues
TTITLE0=If Love Ain't There
TTITLE1=Stardust
TTITLE2=Ain't Misbehavin'
TTITLE3=The End of a Love Affair
TTITLE4=It's All in the Game
TTITLE5=When Sunny Gets Blue
TTITLE6=When I Fall in Love
TTITLE7=Stay AS Sweet As You Are
TTITLE8=Someone to Tell it All
TTITLE9=I Thought About Marie
TTITLE10=Love is the Thing
EXTD=
EXTT0=
EXTT1=
EXTT2=
EXTT3=
EXTT4=
EXTT5=
EXTT6=
EXTT7=
EXTT8=
EXTT9=
EXTT10=
PLAYORDER=
